<mxfile host="Electron" agent="Mozilla/5.0 (Windows NT 10.0; Win64; x64) AppleWebKit/537.36 (KHTML, like Gecko) draw.io/25.0.1 Chrome/128.0.6613.186 Electron/32.2.6 Safari/537.36" version="25.0.1">
  <diagram id="C5RBs43oDa-KdzZeNtuy" name="Page-1">
    <mxGraphModel dx="1098" dy="988" grid="1" gridSize="10" guides="1" tooltips="1" connect="1" arrows="1" fold="1" page="1" pageScale="1" pageWidth="827" pageHeight="1169" math="0" shadow="0">
      <root>
        <mxCell id="WIyWlLk6GJQsqaUBKTNV-0" />
        <mxCell id="WIyWlLk6GJQsqaUBKTNV-1" parent="WIyWlLk6GJQsqaUBKTNV-0" />
        <mxCell id="WIyWlLk6GJQsqaUBKTNV-3" value="printUsers(User[] userArray)" style="rounded=1;whiteSpace=wrap;html=1;fontSize=12;glass=0;strokeWidth=1;shadow=0;" parent="WIyWlLk6GJQsqaUBKTNV-1" vertex="1">
          <mxGeometry x="160" y="40" width="190" height="40" as="geometry" />
        </mxCell>
        <mxCell id="aebrDX7gC0eGVACJDTiB-3" value="" style="endArrow=none;dashed=1;html=1;rounded=0;" edge="1" parent="WIyWlLk6GJQsqaUBKTNV-1">
          <mxGeometry width="50" height="50" relative="1" as="geometry">
            <mxPoint x="10" y="250" as="sourcePoint" />
            <mxPoint x="830" y="250" as="targetPoint" />
          </mxGeometry>
        </mxCell>
        <mxCell id="aebrDX7gC0eGVACJDTiB-5" value="While startIndex &amp;lt; userArray.Length" style="edgeLabel;html=1;align=center;verticalAlign=middle;resizable=0;points=[];fontSize=19;" vertex="1" connectable="0" parent="aebrDX7gC0eGVACJDTiB-3">
          <mxGeometry x="-0.6845" relative="1" as="geometry">
            <mxPoint x="438" as="offset" />
          </mxGeometry>
        </mxCell>
        <mxCell id="aebrDX7gC0eGVACJDTiB-7" value="declare maxUserLines" style="rounded=1;whiteSpace=wrap;html=1;fontSize=12;glass=0;strokeWidth=1;shadow=0;" vertex="1" parent="WIyWlLk6GJQsqaUBKTNV-1">
          <mxGeometry x="160" y="80" width="190" height="40" as="geometry" />
        </mxCell>
        <mxCell id="aebrDX7gC0eGVACJDTiB-8" value="declare startIndex" style="rounded=1;whiteSpace=wrap;html=1;fontSize=12;glass=0;strokeWidth=1;shadow=0;" vertex="1" parent="WIyWlLk6GJQsqaUBKTNV-1">
          <mxGeometry x="160" y="120" width="190" height="40" as="geometry" />
        </mxCell>
        <mxCell id="aebrDX7gC0eGVACJDTiB-10" value="" style="endArrow=none;dashed=1;html=1;rounded=0;" edge="1" parent="WIyWlLk6GJQsqaUBKTNV-1">
          <mxGeometry width="50" height="50" relative="1" as="geometry">
            <mxPoint x="0.5" y="740" as="sourcePoint" />
            <mxPoint x="827.5" y="740" as="targetPoint" />
          </mxGeometry>
        </mxCell>
        <mxCell id="aebrDX7gC0eGVACJDTiB-12" value="" style="endArrow=none;dashed=1;html=1;dashPattern=1 3;strokeWidth=2;rounded=0;" edge="1" parent="WIyWlLk6GJQsqaUBKTNV-1">
          <mxGeometry width="50" height="50" relative="1" as="geometry">
            <mxPoint x="40" y="320" as="sourcePoint" />
            <mxPoint x="800" y="320" as="targetPoint" />
          </mxGeometry>
        </mxCell>
        <mxCell id="aebrDX7gC0eGVACJDTiB-14" value="for i = startIndex; i &amp;lt; startIndex + maxUserLines &amp;amp;&amp;amp; i &amp;lt; userArray.Length; i++" style="edgeLabel;html=1;align=center;verticalAlign=middle;resizable=0;points=[];fontSize=19;" vertex="1" connectable="0" parent="WIyWlLk6GJQsqaUBKTNV-1">
          <mxGeometry x="414" y="320" as="geometry" />
        </mxCell>
        <mxCell id="aebrDX7gC0eGVACJDTiB-15" value="Print User" style="rounded=1;whiteSpace=wrap;html=1;fontSize=12;glass=0;strokeWidth=1;shadow=0;" vertex="1" parent="WIyWlLk6GJQsqaUBKTNV-1">
          <mxGeometry x="310" y="380" width="190" height="40" as="geometry" />
        </mxCell>
        <mxCell id="aebrDX7gC0eGVACJDTiB-16" value="" style="endArrow=none;dashed=1;html=1;dashPattern=1 3;strokeWidth=2;rounded=0;" edge="1" parent="WIyWlLk6GJQsqaUBKTNV-1">
          <mxGeometry width="50" height="50" relative="1" as="geometry">
            <mxPoint x="40" y="460" as="sourcePoint" />
            <mxPoint x="800" y="460" as="targetPoint" />
          </mxGeometry>
        </mxCell>
        <mxCell id="aebrDX7gC0eGVACJDTiB-20" style="edgeStyle=orthogonalEdgeStyle;rounded=0;orthogonalLoop=1;jettySize=auto;html=1;" edge="1" parent="WIyWlLk6GJQsqaUBKTNV-1" source="aebrDX7gC0eGVACJDTiB-17" target="aebrDX7gC0eGVACJDTiB-19">
          <mxGeometry relative="1" as="geometry" />
        </mxCell>
        <mxCell id="aebrDX7gC0eGVACJDTiB-17" value="startIndex += maxLines" style="rounded=1;whiteSpace=wrap;html=1;fontSize=12;glass=0;strokeWidth=1;shadow=0;" vertex="1" parent="WIyWlLk6GJQsqaUBKTNV-1">
          <mxGeometry x="310" y="510" width="190" height="40" as="geometry" />
        </mxCell>
        <mxCell id="aebrDX7gC0eGVACJDTiB-24" style="edgeStyle=orthogonalEdgeStyle;rounded=0;orthogonalLoop=1;jettySize=auto;html=1;entryX=0;entryY=0.5;entryDx=0;entryDy=0;" edge="1" parent="WIyWlLk6GJQsqaUBKTNV-1" source="aebrDX7gC0eGVACJDTiB-19" target="aebrDX7gC0eGVACJDTiB-21">
          <mxGeometry relative="1" as="geometry" />
        </mxCell>
        <mxCell id="aebrDX7gC0eGVACJDTiB-27" value="True" style="edgeLabel;html=1;align=center;verticalAlign=middle;resizable=0;points=[];" vertex="1" connectable="0" parent="aebrDX7gC0eGVACJDTiB-24">
          <mxGeometry x="-0.2522" relative="1" as="geometry">
            <mxPoint x="1" as="offset" />
          </mxGeometry>
        </mxCell>
        <mxCell id="aebrDX7gC0eGVACJDTiB-19" value="if startIndex &amp;lt; userArray.Length" style="rhombus;whiteSpace=wrap;html=1;" vertex="1" parent="WIyWlLk6GJQsqaUBKTNV-1">
          <mxGeometry x="337.5" y="600" width="135" height="110" as="geometry" />
        </mxCell>
        <mxCell id="aebrDX7gC0eGVACJDTiB-21" value="print &quot;Press any key to continue&quot;" style="rounded=1;whiteSpace=wrap;html=1;fontSize=12;glass=0;strokeWidth=1;shadow=0;" vertex="1" parent="WIyWlLk6GJQsqaUBKTNV-1">
          <mxGeometry x="530" y="635" width="190" height="40" as="geometry" />
        </mxCell>
        <mxCell id="aebrDX7gC0eGVACJDTiB-22" value="ReadKey" style="rounded=1;whiteSpace=wrap;html=1;fontSize=12;glass=0;strokeWidth=1;shadow=0;" vertex="1" parent="WIyWlLk6GJQsqaUBKTNV-1">
          <mxGeometry x="720" y="635" width="190" height="40" as="geometry" />
        </mxCell>
        <mxCell id="aebrDX7gC0eGVACJDTiB-25" style="edgeStyle=orthogonalEdgeStyle;rounded=0;orthogonalLoop=1;jettySize=auto;html=1;" edge="1" parent="WIyWlLk6GJQsqaUBKTNV-1" source="aebrDX7gC0eGVACJDTiB-23">
          <mxGeometry relative="1" as="geometry">
            <mxPoint x="830" y="250" as="targetPoint" />
            <Array as="points">
              <mxPoint x="1005" y="250" />
            </Array>
          </mxGeometry>
        </mxCell>
        <mxCell id="aebrDX7gC0eGVACJDTiB-23" value="Console.Clear" style="rounded=1;whiteSpace=wrap;html=1;fontSize=12;glass=0;strokeWidth=1;shadow=0;" vertex="1" parent="WIyWlLk6GJQsqaUBKTNV-1">
          <mxGeometry x="910" y="635" width="190" height="40" as="geometry" />
        </mxCell>
        <mxCell id="aebrDX7gC0eGVACJDTiB-28" value="print &quot;Last page, press any key to continue&quot;" style="rounded=1;whiteSpace=wrap;html=1;fontSize=12;glass=0;strokeWidth=1;shadow=0;" vertex="1" parent="WIyWlLk6GJQsqaUBKTNV-1">
          <mxGeometry x="300" y="790" width="190" height="40" as="geometry" />
        </mxCell>
        <mxCell id="aebrDX7gC0eGVACJDTiB-31" style="edgeStyle=orthogonalEdgeStyle;rounded=0;orthogonalLoop=1;jettySize=auto;html=1;entryX=0.5;entryY=0;entryDx=0;entryDy=0;" edge="1" parent="WIyWlLk6GJQsqaUBKTNV-1" source="aebrDX7gC0eGVACJDTiB-29" target="aebrDX7gC0eGVACJDTiB-30">
          <mxGeometry relative="1" as="geometry" />
        </mxCell>
        <mxCell id="aebrDX7gC0eGVACJDTiB-29" value="ReadKey" style="rounded=1;whiteSpace=wrap;html=1;fontSize=12;glass=0;strokeWidth=1;shadow=0;" vertex="1" parent="WIyWlLk6GJQsqaUBKTNV-1">
          <mxGeometry x="300" y="830" width="190" height="40" as="geometry" />
        </mxCell>
        <mxCell id="aebrDX7gC0eGVACJDTiB-30" value="Stop" style="rounded=1;whiteSpace=wrap;html=1;fontSize=12;glass=0;strokeWidth=1;shadow=0;" vertex="1" parent="WIyWlLk6GJQsqaUBKTNV-1">
          <mxGeometry x="300" y="920" width="190" height="40" as="geometry" />
        </mxCell>
      </root>
    </mxGraphModel>
  </diagram>
</mxfile>
